<mxfile host="app.diagrams.net" modified="2024-04-03T23:34:18.715Z" agent="Mozilla/5.0 (Macintosh; Intel Mac OS X 10_15_7) AppleWebKit/605.1.15 (KHTML, like Gecko) Version/17.2.1 Safari/605.1.15" etag="Jdz_toyG1OAKQyOTVJlN" version="24.2.1" type="device">
  <diagram id="Ka57WYL8uHOhpwoZ9gLt" name="Страница — 1">
    <mxGraphModel dx="874" dy="-608" grid="1" gridSize="10" guides="1" tooltips="1" connect="1" arrows="1" fold="1" page="1" pageScale="1" pageWidth="827" pageHeight="1169" math="0" shadow="0">
      <root>
        <mxCell id="0" />
        <mxCell id="1" parent="0" />
        <mxCell id="-9mjrlD3U77bwaLZREmP-149" value="" style="rounded=0;whiteSpace=wrap;html=1;" parent="1" vertex="1">
          <mxGeometry x="344" y="2190" width="140" height="80" as="geometry" />
        </mxCell>
        <mxCell id="-9mjrlD3U77bwaLZREmP-1" value="&lt;span style=&quot;font-size: 14px;&quot;&gt;Профиль клиента&lt;/span&gt;" style="whiteSpace=wrap;html=1;" parent="1" vertex="1">
          <mxGeometry x="93" y="1940" width="120" height="60" as="geometry" />
        </mxCell>
        <mxCell id="-9mjrlD3U77bwaLZREmP-11" value="&lt;font style=&quot;font-size: 14px;&quot;&gt;Номер клиента&lt;/font&gt;" style="ellipse;whiteSpace=wrap;html=1;" parent="1" vertex="1">
          <mxGeometry x="250" y="1950" width="140" height="60" as="geometry" />
        </mxCell>
        <mxCell id="-9mjrlD3U77bwaLZREmP-12" value="&lt;span style=&quot;font-size: 14px;&quot;&gt;ИНН&lt;/span&gt;" style="ellipse;whiteSpace=wrap;html=1;" parent="1" vertex="1">
          <mxGeometry x="250" y="1390" width="140" height="60" as="geometry" />
        </mxCell>
        <mxCell id="-9mjrlD3U77bwaLZREmP-13" value="&lt;span style=&quot;font-size: 14px;&quot;&gt;Наименование&lt;/span&gt;" style="ellipse;whiteSpace=wrap;html=1;" parent="1" vertex="1">
          <mxGeometry x="250" y="1460" width="140" height="60" as="geometry" />
        </mxCell>
        <mxCell id="-9mjrlD3U77bwaLZREmP-14" value="&lt;span style=&quot;font-size: 14px;&quot;&gt;Должностное лицо&lt;/span&gt;" style="ellipse;whiteSpace=wrap;html=1;" parent="1" vertex="1">
          <mxGeometry x="250" y="1530" width="140" height="60" as="geometry" />
        </mxCell>
        <mxCell id="-9mjrlD3U77bwaLZREmP-15" value="&lt;span style=&quot;font-size: 14px;&quot;&gt;Контактная ифнормация&lt;/span&gt;" style="ellipse;whiteSpace=wrap;html=1;" parent="1" vertex="1">
          <mxGeometry x="250" y="1600" width="140" height="60" as="geometry" />
        </mxCell>
        <mxCell id="-9mjrlD3U77bwaLZREmP-16" value="&lt;span style=&quot;font-size: 14px;&quot;&gt;Адрес доставки&lt;/span&gt;" style="ellipse;whiteSpace=wrap;html=1;" parent="1" vertex="1">
          <mxGeometry x="250" y="1670" width="140" height="60" as="geometry" />
        </mxCell>
        <mxCell id="-9mjrlD3U77bwaLZREmP-17" value="&lt;span style=&quot;font-size: 14px;&quot;&gt;БИК&lt;/span&gt;" style="ellipse;whiteSpace=wrap;html=1;" parent="1" vertex="1">
          <mxGeometry x="250" y="1810" width="140" height="60" as="geometry" />
        </mxCell>
        <mxCell id="-9mjrlD3U77bwaLZREmP-18" value="&lt;span style=&quot;font-size: 14px;&quot;&gt;Расчётный счёт&lt;/span&gt;" style="ellipse;whiteSpace=wrap;html=1;" parent="1" vertex="1">
          <mxGeometry x="250" y="1740" width="140" height="60" as="geometry" />
        </mxCell>
        <mxCell id="-9mjrlD3U77bwaLZREmP-19" value="&lt;span style=&quot;font-size: 14px;&quot;&gt;Наименование&lt;br&gt;банка&lt;br&gt;&lt;/span&gt;" style="ellipse;whiteSpace=wrap;html=1;" parent="1" vertex="1">
          <mxGeometry x="250" y="1880" width="140" height="60" as="geometry" />
        </mxCell>
        <mxCell id="-9mjrlD3U77bwaLZREmP-20" value="" style="endArrow=none;html=1;rounded=0;exitX=0;exitY=0.5;exitDx=0;exitDy=0;entryX=0.5;entryY=0;entryDx=0;entryDy=0;" parent="1" source="-9mjrlD3U77bwaLZREmP-19" target="-9mjrlD3U77bwaLZREmP-1" edge="1">
          <mxGeometry width="50" height="50" relative="1" as="geometry">
            <mxPoint x="896" y="1600" as="sourcePoint" />
            <mxPoint x="946" y="1550" as="targetPoint" />
          </mxGeometry>
        </mxCell>
        <mxCell id="-9mjrlD3U77bwaLZREmP-22" value="" style="endArrow=none;html=1;rounded=0;exitX=-0.004;exitY=0.448;exitDx=0;exitDy=0;entryX=0.5;entryY=0;entryDx=0;entryDy=0;exitPerimeter=0;" parent="1" source="-9mjrlD3U77bwaLZREmP-17" target="-9mjrlD3U77bwaLZREmP-1" edge="1">
          <mxGeometry width="50" height="50" relative="1" as="geometry">
            <mxPoint x="126" y="1890" as="sourcePoint" />
            <mxPoint x="163" y="1950" as="targetPoint" />
          </mxGeometry>
        </mxCell>
        <mxCell id="-9mjrlD3U77bwaLZREmP-23" value="" style="endArrow=none;html=1;rounded=0;exitX=0;exitY=0.5;exitDx=0;exitDy=0;entryX=0.5;entryY=0;entryDx=0;entryDy=0;" parent="1" source="-9mjrlD3U77bwaLZREmP-18" target="-9mjrlD3U77bwaLZREmP-1" edge="1">
          <mxGeometry width="50" height="50" relative="1" as="geometry">
            <mxPoint x="126" y="1790" as="sourcePoint" />
            <mxPoint x="163" y="1950" as="targetPoint" />
          </mxGeometry>
        </mxCell>
        <mxCell id="-9mjrlD3U77bwaLZREmP-24" value="" style="endArrow=none;html=1;rounded=0;exitX=0;exitY=0.5;exitDx=0;exitDy=0;entryX=0.5;entryY=0;entryDx=0;entryDy=0;" parent="1" source="-9mjrlD3U77bwaLZREmP-16" target="-9mjrlD3U77bwaLZREmP-1" edge="1">
          <mxGeometry width="50" height="50" relative="1" as="geometry">
            <mxPoint x="126" y="1700" as="sourcePoint" />
            <mxPoint x="163" y="1950" as="targetPoint" />
          </mxGeometry>
        </mxCell>
        <mxCell id="-9mjrlD3U77bwaLZREmP-25" value="" style="endArrow=none;html=1;rounded=0;exitX=0;exitY=0.5;exitDx=0;exitDy=0;entryX=0.5;entryY=0;entryDx=0;entryDy=0;" parent="1" source="-9mjrlD3U77bwaLZREmP-15" target="-9mjrlD3U77bwaLZREmP-1" edge="1">
          <mxGeometry width="50" height="50" relative="1" as="geometry">
            <mxPoint x="126" y="1610" as="sourcePoint" />
            <mxPoint x="163" y="1950" as="targetPoint" />
          </mxGeometry>
        </mxCell>
        <mxCell id="-9mjrlD3U77bwaLZREmP-26" value="" style="endArrow=none;html=1;rounded=0;exitX=0;exitY=0.5;exitDx=0;exitDy=0;entryX=0.5;entryY=0;entryDx=0;entryDy=0;" parent="1" source="-9mjrlD3U77bwaLZREmP-14" target="-9mjrlD3U77bwaLZREmP-1" edge="1">
          <mxGeometry width="50" height="50" relative="1" as="geometry">
            <mxPoint x="126" y="1520" as="sourcePoint" />
            <mxPoint x="163" y="1950" as="targetPoint" />
          </mxGeometry>
        </mxCell>
        <mxCell id="-9mjrlD3U77bwaLZREmP-27" value="" style="endArrow=none;html=1;rounded=0;exitX=0;exitY=0.5;exitDx=0;exitDy=0;entryX=0.5;entryY=0;entryDx=0;entryDy=0;" parent="1" source="-9mjrlD3U77bwaLZREmP-13" target="-9mjrlD3U77bwaLZREmP-1" edge="1">
          <mxGeometry width="50" height="50" relative="1" as="geometry">
            <mxPoint x="126" y="1440" as="sourcePoint" />
            <mxPoint x="163" y="1950" as="targetPoint" />
          </mxGeometry>
        </mxCell>
        <mxCell id="-9mjrlD3U77bwaLZREmP-28" value="" style="endArrow=none;html=1;rounded=0;exitX=0;exitY=0.5;exitDx=0;exitDy=0;entryX=0.5;entryY=0;entryDx=0;entryDy=0;" parent="1" source="-9mjrlD3U77bwaLZREmP-12" target="-9mjrlD3U77bwaLZREmP-1" edge="1">
          <mxGeometry width="50" height="50" relative="1" as="geometry">
            <mxPoint x="126" y="1360" as="sourcePoint" />
            <mxPoint x="163" y="1950" as="targetPoint" />
          </mxGeometry>
        </mxCell>
        <mxCell id="-9mjrlD3U77bwaLZREmP-29" value="" style="endArrow=none;html=1;rounded=0;exitX=0;exitY=0.5;exitDx=0;exitDy=0;entryX=0.992;entryY=0.65;entryDx=0;entryDy=0;entryPerimeter=0;" parent="1" source="-9mjrlD3U77bwaLZREmP-11" target="-9mjrlD3U77bwaLZREmP-1" edge="1">
          <mxGeometry width="50" height="50" relative="1" as="geometry">
            <mxPoint x="126" y="1890" as="sourcePoint" />
            <mxPoint x="163" y="1950" as="targetPoint" />
          </mxGeometry>
        </mxCell>
        <mxCell id="-9mjrlD3U77bwaLZREmP-30" value="&lt;font style=&quot;font-size: 14px;&quot;&gt;Сотрудники&lt;br&gt;&lt;/font&gt;" style="whiteSpace=wrap;html=1;direction=east;flipH=1;flipV=0;" parent="1" vertex="1">
          <mxGeometry x="540" y="1960" width="120" height="60" as="geometry" />
        </mxCell>
        <mxCell id="-9mjrlD3U77bwaLZREmP-31" value="&lt;font style=&quot;font-size: 14px;&quot;&gt;Номер сотрудника&lt;/font&gt;" style="ellipse;whiteSpace=wrap;html=1;direction=east;flipH=1;flipV=0;" parent="1" vertex="1">
          <mxGeometry x="650" y="1890" width="140" height="60" as="geometry" />
        </mxCell>
        <mxCell id="-9mjrlD3U77bwaLZREmP-35" value="&lt;span style=&quot;font-size: 14px;&quot;&gt;Контактная ифнормация&lt;/span&gt;" style="ellipse;whiteSpace=wrap;html=1;direction=east;flipH=1;flipV=0;" parent="1" vertex="1">
          <mxGeometry x="650" y="1740" width="140" height="60" as="geometry" />
        </mxCell>
        <mxCell id="-9mjrlD3U77bwaLZREmP-37" value="&lt;span style=&quot;font-size: 14px;&quot;&gt;Должность&lt;/span&gt;" style="ellipse;whiteSpace=wrap;html=1;direction=east;flipH=1;flipV=0;" parent="1" vertex="1">
          <mxGeometry x="650" y="1660" width="140" height="60" as="geometry" />
        </mxCell>
        <mxCell id="-9mjrlD3U77bwaLZREmP-39" value="&lt;span style=&quot;font-size: 14px;&quot;&gt;ФИО&lt;br&gt;&lt;/span&gt;" style="ellipse;whiteSpace=wrap;html=1;direction=east;flipH=1;flipV=0;" parent="1" vertex="1">
          <mxGeometry x="650" y="1820" width="140" height="60" as="geometry" />
        </mxCell>
        <mxCell id="-9mjrlD3U77bwaLZREmP-40" value="" style="endArrow=none;html=1;rounded=0;exitX=0;exitY=0.5;exitDx=0;exitDy=0;entryX=0.5;entryY=0;entryDx=0;entryDy=0;" parent="1" source="-9mjrlD3U77bwaLZREmP-39" target="-9mjrlD3U77bwaLZREmP-30" edge="1">
          <mxGeometry width="50" height="50" relative="1" as="geometry">
            <mxPoint x="-520" y="1600" as="sourcePoint" />
            <mxPoint x="-570" y="1550" as="targetPoint" />
          </mxGeometry>
        </mxCell>
        <mxCell id="-9mjrlD3U77bwaLZREmP-41" value="" style="endArrow=none;html=1;rounded=0;exitX=0;exitY=0.5;exitDx=0;exitDy=0;entryX=0.5;entryY=0;entryDx=0;entryDy=0;" parent="1" source="-9mjrlD3U77bwaLZREmP-37" target="-9mjrlD3U77bwaLZREmP-30" edge="1">
          <mxGeometry width="50" height="50" relative="1" as="geometry">
            <mxPoint x="250" y="1890" as="sourcePoint" />
            <mxPoint x="213" y="1950" as="targetPoint" />
          </mxGeometry>
        </mxCell>
        <mxCell id="-9mjrlD3U77bwaLZREmP-44" value="" style="endArrow=none;html=1;rounded=0;exitX=0;exitY=0.5;exitDx=0;exitDy=0;entryX=0.5;entryY=0;entryDx=0;entryDy=0;" parent="1" source="-9mjrlD3U77bwaLZREmP-35" target="-9mjrlD3U77bwaLZREmP-30" edge="1">
          <mxGeometry width="50" height="50" relative="1" as="geometry">
            <mxPoint x="250" y="1610" as="sourcePoint" />
            <mxPoint x="213" y="1950" as="targetPoint" />
          </mxGeometry>
        </mxCell>
        <mxCell id="-9mjrlD3U77bwaLZREmP-48" value="" style="endArrow=none;html=1;rounded=0;exitX=0;exitY=0.5;exitDx=0;exitDy=0;entryX=0.5;entryY=0;entryDx=0;entryDy=0;" parent="1" source="-9mjrlD3U77bwaLZREmP-31" target="-9mjrlD3U77bwaLZREmP-30" edge="1">
          <mxGeometry width="50" height="50" relative="1" as="geometry">
            <mxPoint x="473" y="1970" as="sourcePoint" />
            <mxPoint x="403" y="1970" as="targetPoint" />
          </mxGeometry>
        </mxCell>
        <mxCell id="-9mjrlD3U77bwaLZREmP-49" value="&lt;font style=&quot;font-size: 14px;&quot;&gt;Поставки&lt;br&gt;&lt;/font&gt;" style="whiteSpace=wrap;html=1;direction=east;flipH=1;flipV=0;" parent="1" vertex="1">
          <mxGeometry x="620" y="2980" width="120" height="60" as="geometry" />
        </mxCell>
        <mxCell id="-9mjrlD3U77bwaLZREmP-50" value="&lt;font style=&quot;font-size: 14px;&quot;&gt;Номер поставки&lt;/font&gt;" style="ellipse;whiteSpace=wrap;html=1;direction=east;flipH=1;flipV=0;" parent="1" vertex="1">
          <mxGeometry x="813" y="2980" width="140" height="60" as="geometry" />
        </mxCell>
        <mxCell id="-9mjrlD3U77bwaLZREmP-51" value="&lt;font style=&quot;font-size: 14px;&quot;&gt;Номер сотрудника склада&lt;/font&gt;" style="ellipse;whiteSpace=wrap;html=1;direction=east;flipH=1;flipV=0;" parent="1" vertex="1">
          <mxGeometry x="813" y="2800" width="140" height="60" as="geometry" />
        </mxCell>
        <mxCell id="-9mjrlD3U77bwaLZREmP-52" value="&lt;span style=&quot;font-size: 14px;&quot;&gt;Дата поступления&lt;/span&gt;" style="ellipse;whiteSpace=wrap;html=1;direction=east;flipH=1;flipV=0;" parent="1" vertex="1">
          <mxGeometry x="813" y="2710" width="140" height="60" as="geometry" />
        </mxCell>
        <mxCell id="-9mjrlD3U77bwaLZREmP-53" value="&lt;span style=&quot;font-size: 14px;&quot;&gt;Наименование&lt;/span&gt;&lt;span style=&quot;font-size: 14px;&quot;&gt;&lt;br&gt;&lt;/span&gt;&lt;div&gt;&lt;span style=&quot;font-size: 14px;&quot;&gt;поставщика&lt;/span&gt;&lt;/div&gt;" style="ellipse;whiteSpace=wrap;html=1;direction=east;flipH=1;flipV=0;" parent="1" vertex="1">
          <mxGeometry x="813" y="2890" width="140" height="60" as="geometry" />
        </mxCell>
        <mxCell id="-9mjrlD3U77bwaLZREmP-54" value="" style="endArrow=none;html=1;rounded=0;exitX=0;exitY=0.5;exitDx=0;exitDy=0;entryX=0.5;entryY=0;entryDx=0;entryDy=0;" parent="1" source="-9mjrlD3U77bwaLZREmP-53" target="-9mjrlD3U77bwaLZREmP-49" edge="1">
          <mxGeometry width="50" height="50" relative="1" as="geometry">
            <mxPoint x="-180" y="2640" as="sourcePoint" />
            <mxPoint x="-230" y="2590" as="targetPoint" />
          </mxGeometry>
        </mxCell>
        <mxCell id="-9mjrlD3U77bwaLZREmP-55" value="" style="endArrow=none;html=1;rounded=0;exitX=0;exitY=0.5;exitDx=0;exitDy=0;entryX=0.5;entryY=0;entryDx=0;entryDy=0;" parent="1" source="-9mjrlD3U77bwaLZREmP-52" target="-9mjrlD3U77bwaLZREmP-49" edge="1">
          <mxGeometry width="50" height="50" relative="1" as="geometry">
            <mxPoint x="590" y="2930" as="sourcePoint" />
            <mxPoint x="553" y="2990" as="targetPoint" />
          </mxGeometry>
        </mxCell>
        <mxCell id="-9mjrlD3U77bwaLZREmP-56" value="" style="endArrow=none;html=1;rounded=0;exitX=0;exitY=0.5;exitDx=0;exitDy=0;entryX=0.5;entryY=0;entryDx=0;entryDy=0;" parent="1" source="-9mjrlD3U77bwaLZREmP-51" target="-9mjrlD3U77bwaLZREmP-49" edge="1">
          <mxGeometry width="50" height="50" relative="1" as="geometry">
            <mxPoint x="590" y="2650" as="sourcePoint" />
            <mxPoint x="553" y="2990" as="targetPoint" />
          </mxGeometry>
        </mxCell>
        <mxCell id="-9mjrlD3U77bwaLZREmP-57" value="" style="endArrow=none;html=1;rounded=0;" parent="1" edge="1">
          <mxGeometry width="50" height="50" relative="1" as="geometry">
            <mxPoint x="813" y="3010" as="sourcePoint" />
            <mxPoint x="743" y="3010" as="targetPoint" />
          </mxGeometry>
        </mxCell>
        <mxCell id="-9mjrlD3U77bwaLZREmP-58" value="&lt;span style=&quot;font-size: 14px;&quot;&gt;Номер счёт&lt;br&gt;фактуры&lt;br&gt;&lt;/span&gt;" style="ellipse;whiteSpace=wrap;html=1;direction=east;flipH=1;flipV=0;" parent="1" vertex="1">
          <mxGeometry x="813" y="2610" width="140" height="60" as="geometry" />
        </mxCell>
        <mxCell id="-9mjrlD3U77bwaLZREmP-59" value="" style="endArrow=none;html=1;rounded=0;exitX=0;exitY=0.5;exitDx=0;exitDy=0;" parent="1" source="-9mjrlD3U77bwaLZREmP-58" edge="1">
          <mxGeometry width="50" height="50" relative="1" as="geometry">
            <mxPoint x="823" y="2750" as="sourcePoint" />
            <mxPoint x="683" y="2980" as="targetPoint" />
          </mxGeometry>
        </mxCell>
        <mxCell id="-9mjrlD3U77bwaLZREmP-94" value="&lt;font style=&quot;font-size: 14px;&quot;&gt;Номер товара&lt;/font&gt;" style="ellipse;whiteSpace=wrap;html=1;direction=east;flipH=1;flipV=0;" parent="1" vertex="1">
          <mxGeometry x="803" y="2480" width="140" height="60" as="geometry" />
        </mxCell>
        <mxCell id="-9mjrlD3U77bwaLZREmP-95" value="&lt;span style=&quot;font-size: 14px;&quot;&gt;Стоимость&lt;/span&gt;" style="ellipse;whiteSpace=wrap;html=1;direction=east;flipH=1;flipV=0;" parent="1" vertex="1">
          <mxGeometry x="803" y="2300" width="140" height="60" as="geometry" />
        </mxCell>
        <mxCell id="-9mjrlD3U77bwaLZREmP-96" value="&lt;span style=&quot;font-size: 14px;&quot;&gt;Единицы&lt;br&gt;измерения&lt;/span&gt;" style="ellipse;whiteSpace=wrap;html=1;direction=east;flipH=1;flipV=0;" parent="1" vertex="1">
          <mxGeometry x="803" y="2210" width="140" height="60" as="geometry" />
        </mxCell>
        <mxCell id="-9mjrlD3U77bwaLZREmP-97" value="&lt;span style=&quot;font-size: 14px;&quot;&gt;Наименование&lt;br&gt;&lt;/span&gt;" style="ellipse;whiteSpace=wrap;html=1;direction=east;flipH=1;flipV=0;" parent="1" vertex="1">
          <mxGeometry x="803" y="2390" width="140" height="60" as="geometry" />
        </mxCell>
        <mxCell id="-9mjrlD3U77bwaLZREmP-98" value="" style="endArrow=none;html=1;rounded=0;exitX=0;exitY=0.5;exitDx=0;exitDy=0;entryX=0.5;entryY=0;entryDx=0;entryDy=0;" parent="1" source="-9mjrlD3U77bwaLZREmP-97" target="-9mjrlD3U77bwaLZREmP-93" edge="1">
          <mxGeometry width="50" height="50" relative="1" as="geometry">
            <mxPoint x="-190" y="2140" as="sourcePoint" />
            <mxPoint x="-240" y="2090" as="targetPoint" />
          </mxGeometry>
        </mxCell>
        <mxCell id="-9mjrlD3U77bwaLZREmP-99" value="" style="endArrow=none;html=1;rounded=0;exitX=0;exitY=0.5;exitDx=0;exitDy=0;entryX=0.5;entryY=0;entryDx=0;entryDy=0;" parent="1" source="-9mjrlD3U77bwaLZREmP-96" target="-9mjrlD3U77bwaLZREmP-93" edge="1">
          <mxGeometry width="50" height="50" relative="1" as="geometry">
            <mxPoint x="580" y="2430" as="sourcePoint" />
            <mxPoint x="543" y="2490" as="targetPoint" />
          </mxGeometry>
        </mxCell>
        <mxCell id="-9mjrlD3U77bwaLZREmP-100" value="" style="endArrow=none;html=1;rounded=0;exitX=0;exitY=0.5;exitDx=0;exitDy=0;entryX=0.5;entryY=0;entryDx=0;entryDy=0;" parent="1" source="-9mjrlD3U77bwaLZREmP-95" target="-9mjrlD3U77bwaLZREmP-93" edge="1">
          <mxGeometry width="50" height="50" relative="1" as="geometry">
            <mxPoint x="580" y="2150" as="sourcePoint" />
            <mxPoint x="543" y="2490" as="targetPoint" />
          </mxGeometry>
        </mxCell>
        <mxCell id="-9mjrlD3U77bwaLZREmP-101" value="" style="endArrow=none;html=1;rounded=0;" parent="1" edge="1">
          <mxGeometry width="50" height="50" relative="1" as="geometry">
            <mxPoint x="803" y="2510" as="sourcePoint" />
            <mxPoint x="733" y="2510" as="targetPoint" />
          </mxGeometry>
        </mxCell>
        <mxCell id="-9mjrlD3U77bwaLZREmP-126" value="&lt;span style=&quot;font-size: 14px;&quot;&gt;Заказы&amp;nbsp;&lt;/span&gt;" style="whiteSpace=wrap;html=1;" parent="1" vertex="1">
          <mxGeometry x="354" y="2200" width="120" height="60" as="geometry" />
        </mxCell>
        <mxCell id="-9mjrlD3U77bwaLZREmP-127" value="&lt;font style=&quot;font-size: 14px;&quot;&gt;Номер заказа&lt;/font&gt;" style="ellipse;whiteSpace=wrap;html=1;" parent="1" vertex="1">
          <mxGeometry x="83" y="2930" width="140" height="60" as="geometry" />
        </mxCell>
        <mxCell id="-9mjrlD3U77bwaLZREmP-128" value="&lt;span style=&quot;font-size: 14px;&quot;&gt;Сумма продажи&lt;/span&gt;" style="ellipse;whiteSpace=wrap;html=1;" parent="1" vertex="1">
          <mxGeometry x="83" y="2330" width="140" height="60" as="geometry" />
        </mxCell>
        <mxCell id="-9mjrlD3U77bwaLZREmP-129" value="&lt;span style=&quot;font-size: 14px;&quot;&gt;Доп-информация&lt;/span&gt;" style="ellipse;whiteSpace=wrap;html=1;" parent="1" vertex="1">
          <mxGeometry x="83" y="2410" width="140" height="60" as="geometry" />
        </mxCell>
        <mxCell id="-9mjrlD3U77bwaLZREmP-130" value="&lt;font style=&quot;font-size: 14px;&quot;&gt;Дата отгрузки&lt;/font&gt;" style="ellipse;whiteSpace=wrap;html=1;" parent="1" vertex="1">
          <mxGeometry x="83" y="2490" width="140" height="60" as="geometry" />
        </mxCell>
        <mxCell id="-9mjrlD3U77bwaLZREmP-131" value="&lt;span style=&quot;font-size: 14px;&quot;&gt;Дата продажи&lt;/span&gt;" style="ellipse;whiteSpace=wrap;html=1;" parent="1" vertex="1">
          <mxGeometry x="83" y="2570" width="140" height="60" as="geometry" />
        </mxCell>
        <mxCell id="-9mjrlD3U77bwaLZREmP-132" value="&lt;span style=&quot;font-size: 14px;&quot;&gt;Наименование&lt;/span&gt;&lt;span style=&quot;font-size: 14px;&quot;&gt;&lt;br&gt;&lt;/span&gt;&lt;div&gt;&lt;span style=&quot;font-size: 14px;&quot;&gt;транспортной&lt;/span&gt;&lt;/div&gt;&lt;div&gt;&lt;span style=&quot;font-size: 14px;&quot;&gt;компании&lt;/span&gt;&lt;/div&gt;" style="ellipse;whiteSpace=wrap;html=1;" parent="1" vertex="1">
          <mxGeometry x="83" y="3010" width="140" height="70" as="geometry" />
        </mxCell>
        <mxCell id="-9mjrlD3U77bwaLZREmP-133" value="&lt;span style=&quot;font-size: 14px;&quot;&gt;Номер сотрудника продажи&lt;/span&gt;" style="ellipse;whiteSpace=wrap;html=1;" parent="1" vertex="1">
          <mxGeometry x="83" y="2740" width="140" height="60" as="geometry" />
        </mxCell>
        <mxCell id="-9mjrlD3U77bwaLZREmP-134" value="&lt;font style=&quot;font-size: 14px;&quot;&gt;Номер сотрудника склада&lt;/font&gt;" style="ellipse;whiteSpace=wrap;html=1;" parent="1" vertex="1">
          <mxGeometry x="83" y="2650" width="140" height="60" as="geometry" />
        </mxCell>
        <mxCell id="-9mjrlD3U77bwaLZREmP-135" value="&lt;span style=&quot;font-size: 14px;&quot;&gt;Номер клиента&lt;br&gt;&lt;/span&gt;" style="ellipse;whiteSpace=wrap;html=1;" parent="1" vertex="1">
          <mxGeometry x="83" y="2840" width="140" height="60" as="geometry" />
        </mxCell>
        <mxCell id="-9mjrlD3U77bwaLZREmP-136" value="" style="endArrow=none;html=1;rounded=0;exitX=1;exitY=0.5;exitDx=0;exitDy=0;entryX=0;entryY=1;entryDx=0;entryDy=0;" parent="1" source="-9mjrlD3U77bwaLZREmP-135" target="-9mjrlD3U77bwaLZREmP-149" edge="1">
          <mxGeometry width="50" height="50" relative="1" as="geometry">
            <mxPoint x="746" y="2500" as="sourcePoint" />
            <mxPoint x="796" y="2450" as="targetPoint" />
          </mxGeometry>
        </mxCell>
        <mxCell id="-9mjrlD3U77bwaLZREmP-137" value="" style="endArrow=none;html=1;rounded=0;exitX=1;exitY=0.5;exitDx=0;exitDy=0;entryX=0;entryY=1;entryDx=0;entryDy=0;" parent="1" source="-9mjrlD3U77bwaLZREmP-133" target="-9mjrlD3U77bwaLZREmP-149" edge="1">
          <mxGeometry width="50" height="50" relative="1" as="geometry">
            <mxPoint x="-24" y="2790" as="sourcePoint" />
            <mxPoint x="13" y="2850" as="targetPoint" />
          </mxGeometry>
        </mxCell>
        <mxCell id="-9mjrlD3U77bwaLZREmP-138" value="" style="endArrow=none;html=1;rounded=0;exitX=1;exitY=0.5;exitDx=0;exitDy=0;entryX=0;entryY=1;entryDx=0;entryDy=0;" parent="1" source="-9mjrlD3U77bwaLZREmP-134" target="-9mjrlD3U77bwaLZREmP-149" edge="1">
          <mxGeometry width="50" height="50" relative="1" as="geometry">
            <mxPoint x="-24" y="2690" as="sourcePoint" />
            <mxPoint x="13" y="2850" as="targetPoint" />
          </mxGeometry>
        </mxCell>
        <mxCell id="-9mjrlD3U77bwaLZREmP-139" value="" style="endArrow=none;html=1;rounded=0;exitX=1;exitY=0.5;exitDx=0;exitDy=0;entryX=0;entryY=1;entryDx=0;entryDy=0;" parent="1" source="-9mjrlD3U77bwaLZREmP-132" target="-9mjrlD3U77bwaLZREmP-149" edge="1">
          <mxGeometry width="50" height="50" relative="1" as="geometry">
            <mxPoint x="-24" y="2600" as="sourcePoint" />
            <mxPoint x="13" y="2850" as="targetPoint" />
          </mxGeometry>
        </mxCell>
        <mxCell id="-9mjrlD3U77bwaLZREmP-140" value="" style="endArrow=none;html=1;rounded=0;exitX=1;exitY=0.5;exitDx=0;exitDy=0;entryX=0;entryY=1;entryDx=0;entryDy=0;" parent="1" source="-9mjrlD3U77bwaLZREmP-131" target="-9mjrlD3U77bwaLZREmP-149" edge="1">
          <mxGeometry width="50" height="50" relative="1" as="geometry">
            <mxPoint x="-24" y="2510" as="sourcePoint" />
            <mxPoint x="350" y="2220" as="targetPoint" />
          </mxGeometry>
        </mxCell>
        <mxCell id="-9mjrlD3U77bwaLZREmP-141" value="" style="endArrow=none;html=1;rounded=0;exitX=1;exitY=0.5;exitDx=0;exitDy=0;entryX=0;entryY=1;entryDx=0;entryDy=0;" parent="1" source="-9mjrlD3U77bwaLZREmP-130" target="-9mjrlD3U77bwaLZREmP-149" edge="1">
          <mxGeometry width="50" height="50" relative="1" as="geometry">
            <mxPoint x="-24" y="2420" as="sourcePoint" />
            <mxPoint x="350" y="2220" as="targetPoint" />
          </mxGeometry>
        </mxCell>
        <mxCell id="-9mjrlD3U77bwaLZREmP-142" value="" style="endArrow=none;html=1;rounded=0;exitX=1;exitY=0.5;exitDx=0;exitDy=0;entryX=0;entryY=1;entryDx=0;entryDy=0;" parent="1" source="-9mjrlD3U77bwaLZREmP-129" target="-9mjrlD3U77bwaLZREmP-149" edge="1">
          <mxGeometry width="50" height="50" relative="1" as="geometry">
            <mxPoint x="-24" y="2340" as="sourcePoint" />
            <mxPoint x="350" y="2220" as="targetPoint" />
          </mxGeometry>
        </mxCell>
        <mxCell id="-9mjrlD3U77bwaLZREmP-143" value="" style="endArrow=none;html=1;rounded=0;exitX=1;exitY=0.5;exitDx=0;exitDy=0;entryX=0;entryY=1;entryDx=0;entryDy=0;" parent="1" source="-9mjrlD3U77bwaLZREmP-128" target="-9mjrlD3U77bwaLZREmP-149" edge="1">
          <mxGeometry width="50" height="50" relative="1" as="geometry">
            <mxPoint x="-24" y="2260" as="sourcePoint" />
            <mxPoint x="350" y="2220" as="targetPoint" />
          </mxGeometry>
        </mxCell>
        <mxCell id="-9mjrlD3U77bwaLZREmP-144" value="" style="endArrow=none;html=1;rounded=0;exitX=1;exitY=0.5;exitDx=0;exitDy=0;entryX=0;entryY=1;entryDx=0;entryDy=0;" parent="1" source="-9mjrlD3U77bwaLZREmP-127" target="-9mjrlD3U77bwaLZREmP-149" edge="1">
          <mxGeometry width="50" height="50" relative="1" as="geometry">
            <mxPoint x="-24" y="2790" as="sourcePoint" />
            <mxPoint x="13" y="2850" as="targetPoint" />
          </mxGeometry>
        </mxCell>
        <mxCell id="-9mjrlD3U77bwaLZREmP-145" value="&lt;font style=&quot;font-size: 14px;&quot;&gt;Необходима ли&amp;nbsp;&lt;br style=&quot;border-color: var(--border-color);&quot;&gt;быстрая&lt;br&gt;отгрузка&lt;/font&gt;" style="ellipse;whiteSpace=wrap;html=1;" parent="1" vertex="1">
          <mxGeometry x="83" y="2250" width="140" height="60" as="geometry" />
        </mxCell>
        <mxCell id="-9mjrlD3U77bwaLZREmP-146" value="&lt;span style=&quot;font-size: 14px;&quot;&gt;Необходимо&amp;nbsp;ли&amp;nbsp;&lt;/span&gt;&lt;br&gt;&lt;span style=&quot;font-size: 14px;&quot;&gt;упаковать &lt;/span&gt;&lt;br&gt;&lt;span style=&quot;font-size: 14px;&quot;&gt;в плёнку&lt;/span&gt;" style="ellipse;whiteSpace=wrap;html=1;" parent="1" vertex="1">
          <mxGeometry x="83" y="2160" width="140" height="70" as="geometry" />
        </mxCell>
        <mxCell id="-9mjrlD3U77bwaLZREmP-147" value="" style="endArrow=none;html=1;rounded=0;exitX=1;exitY=0.5;exitDx=0;exitDy=0;entryX=0;entryY=1;entryDx=0;entryDy=0;" parent="1" source="-9mjrlD3U77bwaLZREmP-145" target="-9mjrlD3U77bwaLZREmP-149" edge="1">
          <mxGeometry width="50" height="50" relative="1" as="geometry">
            <mxPoint x="-104" y="2180" as="sourcePoint" />
            <mxPoint x="350" y="2220" as="targetPoint" />
          </mxGeometry>
        </mxCell>
        <mxCell id="-9mjrlD3U77bwaLZREmP-148" value="" style="endArrow=none;html=1;rounded=0;entryX=0;entryY=1;entryDx=0;entryDy=0;exitX=1;exitY=0.5;exitDx=0;exitDy=0;" parent="1" source="-9mjrlD3U77bwaLZREmP-146" target="-9mjrlD3U77bwaLZREmP-149" edge="1">
          <mxGeometry width="50" height="50" relative="1" as="geometry">
            <mxPoint x="-107" y="2070" as="sourcePoint" />
            <mxPoint x="23" y="2860" as="targetPoint" />
          </mxGeometry>
        </mxCell>
        <mxCell id="-9mjrlD3U77bwaLZREmP-150" value="" style="endArrow=none;html=1;rounded=0;exitX=0.5;exitY=1;exitDx=0;exitDy=0;entryX=0.5;entryY=0;entryDx=0;entryDy=0;" parent="1" source="-9mjrlD3U77bwaLZREmP-1" target="-9mjrlD3U77bwaLZREmP-149" edge="1">
          <mxGeometry width="50" height="50" relative="1" as="geometry">
            <mxPoint x="440" y="1900" as="sourcePoint" />
            <mxPoint x="490" y="1850" as="targetPoint" />
            <Array as="points">
              <mxPoint x="153" y="2090" />
              <mxPoint x="414" y="2090" />
            </Array>
          </mxGeometry>
        </mxCell>
        <mxCell id="-9mjrlD3U77bwaLZREmP-151" value="" style="endArrow=none;html=1;rounded=0;exitX=0.5;exitY=1;exitDx=0;exitDy=0;entryX=0.5;entryY=0;entryDx=0;entryDy=0;" parent="1" source="-9mjrlD3U77bwaLZREmP-30" target="-9mjrlD3U77bwaLZREmP-149" edge="1">
          <mxGeometry width="50" height="50" relative="1" as="geometry">
            <mxPoint x="440" y="1900" as="sourcePoint" />
            <mxPoint x="490" y="1850" as="targetPoint" />
            <Array as="points">
              <mxPoint x="600" y="2090" />
              <mxPoint x="414" y="2090" />
            </Array>
          </mxGeometry>
        </mxCell>
        <mxCell id="-9mjrlD3U77bwaLZREmP-153" value="1" style="text;html=1;align=center;verticalAlign=middle;resizable=0;points=[];autosize=1;strokeColor=none;fillColor=none;fontSize=16;" parent="1" vertex="1">
          <mxGeometry x="150" y="2000" width="30" height="30" as="geometry" />
        </mxCell>
        <mxCell id="-9mjrlD3U77bwaLZREmP-154" value="М" style="text;html=1;align=center;verticalAlign=middle;resizable=0;points=[];autosize=1;strokeColor=none;fillColor=none;fontSize=16;" parent="1" vertex="1">
          <mxGeometry x="600" y="2020" width="40" height="30" as="geometry" />
        </mxCell>
        <mxCell id="-9mjrlD3U77bwaLZREmP-156" value="М" style="text;html=1;align=center;verticalAlign=middle;resizable=0;points=[];autosize=1;strokeColor=none;fillColor=none;fontSize=16;" parent="1" vertex="1">
          <mxGeometry x="409" y="2160" width="40" height="30" as="geometry" />
        </mxCell>
        <mxCell id="-9mjrlD3U77bwaLZREmP-157" value="" style="endArrow=none;html=1;rounded=0;exitX=0.5;exitY=1;exitDx=0;exitDy=0;entryX=0;entryY=0.5;entryDx=0;entryDy=0;" parent="1" source="-9mjrlD3U77bwaLZREmP-149" target="-9mjrlD3U77bwaLZREmP-93" edge="1">
          <mxGeometry width="50" height="50" relative="1" as="geometry">
            <mxPoint x="440" y="2140" as="sourcePoint" />
            <mxPoint x="490" y="2090" as="targetPoint" />
            <Array as="points">
              <mxPoint x="414" y="2510" />
            </Array>
          </mxGeometry>
        </mxCell>
        <mxCell id="-9mjrlD3U77bwaLZREmP-158" value="М" style="text;html=1;align=center;verticalAlign=middle;resizable=0;points=[];autosize=1;strokeColor=none;fillColor=none;fontSize=16;" parent="1" vertex="1">
          <mxGeometry x="560" y="2470" width="40" height="30" as="geometry" />
        </mxCell>
        <mxCell id="-9mjrlD3U77bwaLZREmP-159" value="1" style="text;html=1;align=center;verticalAlign=middle;resizable=0;points=[];autosize=1;strokeColor=none;fillColor=none;fontSize=16;" parent="1" vertex="1">
          <mxGeometry x="414" y="2270" width="30" height="30" as="geometry" />
        </mxCell>
        <mxCell id="-9mjrlD3U77bwaLZREmP-164" value="1" style="text;html=1;align=center;verticalAlign=middle;resizable=0;points=[];autosize=1;strokeColor=none;fillColor=none;fontSize=16;" parent="1" vertex="1">
          <mxGeometry x="344" y="2280" width="30" height="30" as="geometry" />
        </mxCell>
        <mxCell id="-9mjrlD3U77bwaLZREmP-179" value="" style="endArrow=none;html=1;rounded=0;entryX=0.232;entryY=-0.095;entryDx=0;entryDy=0;entryPerimeter=0;exitX=0.5;exitY=0;exitDx=0;exitDy=0;" parent="1" target="-9mjrlD3U77bwaLZREmP-180" edge="1" source="-9mjrlD3U77bwaLZREmP-49">
          <mxGeometry width="50" height="50" relative="1" as="geometry">
            <mxPoint x="700" y="2980" as="sourcePoint" />
            <mxPoint x="640" y="2630" as="targetPoint" />
          </mxGeometry>
        </mxCell>
        <mxCell id="-9mjrlD3U77bwaLZREmP-180" value="М" style="text;html=1;align=center;verticalAlign=middle;resizable=0;points=[];autosize=1;strokeColor=none;fillColor=none;fontSize=16;" parent="1" vertex="1">
          <mxGeometry x="670" y="2540" width="40" height="30" as="geometry" />
        </mxCell>
        <mxCell id="-9mjrlD3U77bwaLZREmP-181" value="1" style="text;html=1;align=center;verticalAlign=middle;resizable=0;points=[];autosize=1;strokeColor=none;fillColor=none;fontSize=16;" parent="1" vertex="1">
          <mxGeometry x="650" y="2942" width="30" height="30" as="geometry" />
        </mxCell>
        <mxCell id="-9mjrlD3U77bwaLZREmP-93" value="&lt;font style=&quot;font-size: 14px;&quot;&gt;Товары&lt;br&gt;&lt;/font&gt;" style="whiteSpace=wrap;html=1;direction=east;flipH=1;flipV=0;" parent="1" vertex="1">
          <mxGeometry x="610" y="2480" width="120" height="60" as="geometry" />
        </mxCell>
        <mxCell id="IZzUB9tZ3DCIGUgleCzr-1" value="&lt;span style=&quot;font-size: 14px;&quot;&gt;ИНН поставщика&lt;/span&gt;" style="ellipse;whiteSpace=wrap;html=1;direction=east;flipH=1;flipV=0;" vertex="1" parent="1">
          <mxGeometry x="813" y="3070" width="140" height="60" as="geometry" />
        </mxCell>
        <mxCell id="IZzUB9tZ3DCIGUgleCzr-2" value="&lt;span style=&quot;font-size: 14px;&quot;&gt;Контактная&lt;/span&gt;&lt;div&gt;&lt;span style=&quot;font-size: 14px;&quot;&gt;информация&lt;/span&gt;&lt;br&gt;&lt;div&gt;&lt;span style=&quot;font-size: 14px;&quot;&gt;поставщика&lt;/span&gt;&lt;br&gt;&lt;/div&gt;&lt;/div&gt;" style="ellipse;whiteSpace=wrap;html=1;direction=east;flipH=1;flipV=0;" vertex="1" parent="1">
          <mxGeometry x="813" y="3160" width="140" height="70" as="geometry" />
        </mxCell>
        <mxCell id="IZzUB9tZ3DCIGUgleCzr-3" value="" style="endArrow=none;html=1;rounded=0;entryX=0.5;entryY=1;entryDx=0;entryDy=0;exitX=0;exitY=0.5;exitDx=0;exitDy=0;" edge="1" parent="1" source="IZzUB9tZ3DCIGUgleCzr-1" target="-9mjrlD3U77bwaLZREmP-49">
          <mxGeometry width="50" height="50" relative="1" as="geometry">
            <mxPoint x="780" y="3090" as="sourcePoint" />
            <mxPoint x="710" y="3090" as="targetPoint" />
          </mxGeometry>
        </mxCell>
        <mxCell id="IZzUB9tZ3DCIGUgleCzr-4" value="" style="endArrow=none;html=1;rounded=0;exitX=0;exitY=0.5;exitDx=0;exitDy=0;" edge="1" parent="1" source="IZzUB9tZ3DCIGUgleCzr-2">
          <mxGeometry width="50" height="50" relative="1" as="geometry">
            <mxPoint x="823" y="3110" as="sourcePoint" />
            <mxPoint x="680" y="3040" as="targetPoint" />
          </mxGeometry>
        </mxCell>
        <mxCell id="IZzUB9tZ3DCIGUgleCzr-5" value="&lt;font style=&quot;font-size: 14px;&quot;&gt;Содержание поставки&lt;br&gt;&lt;/font&gt;" style="whiteSpace=wrap;html=1;direction=east;flipH=1;flipV=0;" vertex="1" parent="1">
          <mxGeometry x="620" y="3657" width="120" height="60" as="geometry" />
        </mxCell>
        <mxCell id="IZzUB9tZ3DCIGUgleCzr-6" value="&lt;font style=&quot;font-size: 14px;&quot;&gt;&lt;font style=&quot;font-size: 14px;&quot;&gt;Номер с&lt;/font&gt;одержания поставки&lt;/font&gt;" style="ellipse;whiteSpace=wrap;html=1;direction=east;flipH=1;flipV=0;" vertex="1" parent="1">
          <mxGeometry x="813" y="3727" width="140" height="73" as="geometry" />
        </mxCell>
        <mxCell id="IZzUB9tZ3DCIGUgleCzr-7" value="&lt;font style=&quot;font-size: 14px;&quot;&gt;Количесиво&lt;/font&gt;" style="ellipse;whiteSpace=wrap;html=1;direction=east;flipH=1;flipV=0;" vertex="1" parent="1">
          <mxGeometry x="813" y="3517" width="140" height="60" as="geometry" />
        </mxCell>
        <mxCell id="IZzUB9tZ3DCIGUgleCzr-8" value="&lt;font style=&quot;font-size: 14px;&quot;&gt;Цена товара&lt;/font&gt;&lt;span style=&quot;font-size: 14px;&quot;&gt;&lt;br&gt;&lt;/span&gt;" style="ellipse;whiteSpace=wrap;html=1;direction=east;flipH=1;flipV=0;" vertex="1" parent="1">
          <mxGeometry x="813" y="3450" width="140" height="60" as="geometry" />
        </mxCell>
        <mxCell id="IZzUB9tZ3DCIGUgleCzr-9" value="&lt;font style=&quot;font-size: 14px;&quot;&gt;Номер поставки&lt;/font&gt;&lt;span style=&quot;font-size: 14px;&quot;&gt;&lt;br&gt;&lt;/span&gt;" style="ellipse;whiteSpace=wrap;html=1;direction=east;flipH=1;flipV=0;" vertex="1" parent="1">
          <mxGeometry x="813" y="3660" width="140" height="60" as="geometry" />
        </mxCell>
        <mxCell id="IZzUB9tZ3DCIGUgleCzr-10" value="" style="endArrow=none;html=1;rounded=0;exitX=0;exitY=0.5;exitDx=0;exitDy=0;entryX=0.5;entryY=0;entryDx=0;entryDy=0;" edge="1" parent="1" source="IZzUB9tZ3DCIGUgleCzr-9" target="IZzUB9tZ3DCIGUgleCzr-5">
          <mxGeometry width="50" height="50" relative="1" as="geometry">
            <mxPoint x="-193.5" y="3317" as="sourcePoint" />
            <mxPoint x="-243.5" y="3267" as="targetPoint" />
          </mxGeometry>
        </mxCell>
        <mxCell id="IZzUB9tZ3DCIGUgleCzr-11" value="" style="endArrow=none;html=1;rounded=0;exitX=0;exitY=0.5;exitDx=0;exitDy=0;entryX=0.5;entryY=0;entryDx=0;entryDy=0;" edge="1" parent="1" source="IZzUB9tZ3DCIGUgleCzr-8" target="IZzUB9tZ3DCIGUgleCzr-5">
          <mxGeometry width="50" height="50" relative="1" as="geometry">
            <mxPoint x="576.5" y="3607" as="sourcePoint" />
            <mxPoint x="539.5" y="3667" as="targetPoint" />
          </mxGeometry>
        </mxCell>
        <mxCell id="IZzUB9tZ3DCIGUgleCzr-12" value="" style="endArrow=none;html=1;rounded=0;exitX=0;exitY=0.5;exitDx=0;exitDy=0;entryX=0.5;entryY=0;entryDx=0;entryDy=0;" edge="1" parent="1" source="IZzUB9tZ3DCIGUgleCzr-7" target="IZzUB9tZ3DCIGUgleCzr-5">
          <mxGeometry width="50" height="50" relative="1" as="geometry">
            <mxPoint x="576.5" y="3327" as="sourcePoint" />
            <mxPoint x="539.5" y="3667" as="targetPoint" />
          </mxGeometry>
        </mxCell>
        <mxCell id="IZzUB9tZ3DCIGUgleCzr-13" value="" style="endArrow=none;html=1;rounded=0;exitX=0;exitY=0.5;exitDx=0;exitDy=0;entryX=0.5;entryY=1;entryDx=0;entryDy=0;" edge="1" parent="1" source="IZzUB9tZ3DCIGUgleCzr-6" target="IZzUB9tZ3DCIGUgleCzr-5">
          <mxGeometry width="50" height="50" relative="1" as="geometry">
            <mxPoint x="799.5" y="3687" as="sourcePoint" />
            <mxPoint x="780" y="3750" as="targetPoint" />
          </mxGeometry>
        </mxCell>
        <mxCell id="IZzUB9tZ3DCIGUgleCzr-14" value="&lt;font style=&quot;font-size: 14px;&quot;&gt;Единицы&lt;br style=&quot;border-color: var(--border-color);&quot;&gt;измерения&lt;/font&gt;&lt;span style=&quot;font-size: 14px;&quot;&gt;&lt;br&gt;&lt;/span&gt;" style="ellipse;whiteSpace=wrap;html=1;direction=east;flipH=1;flipV=0;" vertex="1" parent="1">
          <mxGeometry x="813" y="3380" width="140" height="60" as="geometry" />
        </mxCell>
        <mxCell id="IZzUB9tZ3DCIGUgleCzr-15" value="" style="endArrow=none;html=1;rounded=0;exitX=0;exitY=0.5;exitDx=0;exitDy=0;entryX=0.5;entryY=0;entryDx=0;entryDy=0;" edge="1" parent="1" source="IZzUB9tZ3DCIGUgleCzr-14" target="IZzUB9tZ3DCIGUgleCzr-5">
          <mxGeometry width="50" height="50" relative="1" as="geometry">
            <mxPoint x="809.5" y="3427" as="sourcePoint" />
            <mxPoint x="667" y="3657" as="targetPoint" />
          </mxGeometry>
        </mxCell>
        <mxCell id="IZzUB9tZ3DCIGUgleCzr-16" value="1" style="text;html=1;align=center;verticalAlign=middle;resizable=0;points=[];autosize=1;strokeColor=none;fillColor=none;fontSize=16;" vertex="1" parent="1">
          <mxGeometry x="621.5" y="3620" width="30" height="30" as="geometry" />
        </mxCell>
        <mxCell id="IZzUB9tZ3DCIGUgleCzr-18" value="&lt;font style=&quot;font-size: 14px;&quot;&gt;&lt;font style=&quot;font-size: 14px;&quot;&gt;Номер товара&lt;/font&gt;&lt;/font&gt;" style="ellipse;whiteSpace=wrap;html=1;direction=east;flipH=1;flipV=0;" vertex="1" parent="1">
          <mxGeometry x="813" y="3590" width="140" height="60" as="geometry" />
        </mxCell>
        <mxCell id="IZzUB9tZ3DCIGUgleCzr-19" value="" style="endArrow=none;html=1;rounded=0;exitX=0;exitY=0.5;exitDx=0;exitDy=0;entryX=0.5;entryY=0;entryDx=0;entryDy=0;" edge="1" parent="1" source="IZzUB9tZ3DCIGUgleCzr-18" target="IZzUB9tZ3DCIGUgleCzr-5">
          <mxGeometry width="50" height="50" relative="1" as="geometry">
            <mxPoint x="823" y="3500" as="sourcePoint" />
            <mxPoint x="677" y="3667" as="targetPoint" />
          </mxGeometry>
        </mxCell>
        <mxCell id="IZzUB9tZ3DCIGUgleCzr-20" value="&lt;font style=&quot;font-size: 16px;&quot;&gt;Включает&lt;/font&gt;" style="rhombus;whiteSpace=wrap;html=1;" vertex="1" parent="1">
          <mxGeometry x="349" y="2510" width="130" height="110" as="geometry" />
        </mxCell>
        <mxCell id="IZzUB9tZ3DCIGUgleCzr-21" value="" style="endArrow=none;html=1;rounded=0;entryX=0.5;entryY=1;entryDx=0;entryDy=0;exitX=0.5;exitY=0;exitDx=0;exitDy=0;" edge="1" parent="1" source="IZzUB9tZ3DCIGUgleCzr-5" target="-9mjrlD3U77bwaLZREmP-49">
          <mxGeometry width="50" height="50" relative="1" as="geometry">
            <mxPoint x="641" y="3590" as="sourcePoint" />
            <mxPoint x="640" y="3147" as="targetPoint" />
          </mxGeometry>
        </mxCell>
        <mxCell id="IZzUB9tZ3DCIGUgleCzr-17" value="&lt;font style=&quot;font-size: 16px;&quot;&gt;Включает&lt;/font&gt;" style="rhombus;whiteSpace=wrap;html=1;" vertex="1" parent="1">
          <mxGeometry x="615" y="3135" width="130" height="110" as="geometry" />
        </mxCell>
        <mxCell id="IZzUB9tZ3DCIGUgleCzr-22" value="&lt;font style=&quot;font-size: 14px;&quot;&gt;Содержание заказа&lt;br&gt;&lt;/font&gt;" style="whiteSpace=wrap;html=1;direction=east;flipH=1;flipV=0;" vertex="1" parent="1">
          <mxGeometry x="310" y="2840" width="120" height="60" as="geometry" />
        </mxCell>
        <mxCell id="IZzUB9tZ3DCIGUgleCzr-23" value="&lt;span style=&quot;font-size: 14px;&quot;&gt;Количество&lt;/span&gt;" style="ellipse;whiteSpace=wrap;html=1;direction=east;flipH=1;flipV=0;" vertex="1" parent="1">
          <mxGeometry x="503" y="2660" width="140" height="60" as="geometry" />
        </mxCell>
        <mxCell id="IZzUB9tZ3DCIGUgleCzr-24" value="&lt;span style=&quot;font-size: 14px;&quot;&gt;Номер заказа&lt;/span&gt;" style="ellipse;whiteSpace=wrap;html=1;direction=east;flipH=1;flipV=0;" vertex="1" parent="1">
          <mxGeometry x="503" y="2570" width="140" height="60" as="geometry" />
        </mxCell>
        <mxCell id="IZzUB9tZ3DCIGUgleCzr-25" value="&lt;span style=&quot;font-size: 14px;&quot;&gt;Номер товара&lt;br&gt;&lt;/span&gt;" style="ellipse;whiteSpace=wrap;html=1;direction=east;flipH=1;flipV=0;" vertex="1" parent="1">
          <mxGeometry x="503" y="2750" width="140" height="60" as="geometry" />
        </mxCell>
        <mxCell id="IZzUB9tZ3DCIGUgleCzr-26" value="" style="endArrow=none;html=1;rounded=0;exitX=0;exitY=0.5;exitDx=0;exitDy=0;entryX=0.5;entryY=0;entryDx=0;entryDy=0;" edge="1" parent="1" source="IZzUB9tZ3DCIGUgleCzr-25" target="IZzUB9tZ3DCIGUgleCzr-22">
          <mxGeometry width="50" height="50" relative="1" as="geometry">
            <mxPoint x="-490" y="2500" as="sourcePoint" />
            <mxPoint x="-540" y="2450" as="targetPoint" />
          </mxGeometry>
        </mxCell>
        <mxCell id="IZzUB9tZ3DCIGUgleCzr-27" value="" style="endArrow=none;html=1;rounded=0;exitX=0;exitY=0.5;exitDx=0;exitDy=0;entryX=0.5;entryY=0;entryDx=0;entryDy=0;" edge="1" parent="1" source="IZzUB9tZ3DCIGUgleCzr-24" target="IZzUB9tZ3DCIGUgleCzr-22">
          <mxGeometry width="50" height="50" relative="1" as="geometry">
            <mxPoint x="280" y="2790" as="sourcePoint" />
            <mxPoint x="243" y="2850" as="targetPoint" />
          </mxGeometry>
        </mxCell>
        <mxCell id="IZzUB9tZ3DCIGUgleCzr-28" value="" style="endArrow=none;html=1;rounded=0;exitX=0;exitY=0.5;exitDx=0;exitDy=0;entryX=0.5;entryY=0;entryDx=0;entryDy=0;" edge="1" parent="1" source="IZzUB9tZ3DCIGUgleCzr-23" target="IZzUB9tZ3DCIGUgleCzr-22">
          <mxGeometry width="50" height="50" relative="1" as="geometry">
            <mxPoint x="280" y="2510" as="sourcePoint" />
            <mxPoint x="243" y="2850" as="targetPoint" />
          </mxGeometry>
        </mxCell>
        <mxCell id="IZzUB9tZ3DCIGUgleCzr-29" value="" style="endArrow=none;html=1;rounded=0;exitX=0;exitY=0.5;exitDx=0;exitDy=0;" edge="1" parent="1" source="IZzUB9tZ3DCIGUgleCzr-31">
          <mxGeometry width="50" height="50" relative="1" as="geometry">
            <mxPoint x="503" y="2870" as="sourcePoint" />
            <mxPoint x="433" y="2870" as="targetPoint" />
          </mxGeometry>
        </mxCell>
        <mxCell id="IZzUB9tZ3DCIGUgleCzr-30" value="1" style="text;html=1;align=center;verticalAlign=middle;resizable=0;points=[];autosize=1;strokeColor=none;fillColor=none;fontSize=16;" vertex="1" parent="1">
          <mxGeometry x="334" y="2795" width="30" height="30" as="geometry" />
        </mxCell>
        <mxCell id="IZzUB9tZ3DCIGUgleCzr-31" value="&lt;font style=&quot;font-size: 14px;&quot;&gt;Номер&lt;/font&gt;&lt;div&gt;&lt;font style=&quot;font-size: 14px;&quot;&gt;содержания&lt;/font&gt;&lt;div&gt;&lt;font style=&quot;font-size: 14px;&quot;&gt;заказ&lt;/font&gt;&lt;/div&gt;&lt;/div&gt;" style="ellipse;whiteSpace=wrap;html=1;direction=east;flipH=1;flipV=0;" vertex="1" parent="1">
          <mxGeometry x="514.5" y="2830" width="128.5" height="80" as="geometry" />
        </mxCell>
        <mxCell id="IZzUB9tZ3DCIGUgleCzr-33" value="" style="endArrow=none;html=1;rounded=0;entryX=0.5;entryY=0;entryDx=0;entryDy=0;exitX=0.5;exitY=1;exitDx=0;exitDy=0;" edge="1" parent="1" source="IZzUB9tZ3DCIGUgleCzr-20" target="IZzUB9tZ3DCIGUgleCzr-22">
          <mxGeometry width="50" height="50" relative="1" as="geometry">
            <mxPoint x="480" y="2530" as="sourcePoint" />
            <mxPoint x="620" y="2520" as="targetPoint" />
            <Array as="points">
              <mxPoint x="414" y="2690" />
              <mxPoint x="370" y="2690" />
            </Array>
          </mxGeometry>
        </mxCell>
        <mxCell id="IZzUB9tZ3DCIGUgleCzr-34" value="&lt;span style=&quot;font-size: 14px;&quot;&gt;Контактная&lt;/span&gt;&lt;div&gt;&lt;span style=&quot;font-size: 14px;&quot;&gt;информация&amp;nbsp;&lt;/span&gt;&lt;br&gt;&lt;span style=&quot;font-size: 14px;&quot;&gt;транспортной&amp;nbsp;&lt;/span&gt;&lt;br&gt;&lt;span style=&quot;font-size: 14px;&quot;&gt;компании&lt;/span&gt;&lt;/div&gt;" style="ellipse;whiteSpace=wrap;html=1;" vertex="1" parent="1">
          <mxGeometry x="83" y="3090" width="140" height="80" as="geometry" />
        </mxCell>
        <mxCell id="IZzUB9tZ3DCIGUgleCzr-35" value="&lt;span style=&quot;font-size: 14px;&quot;&gt;ИНН&lt;/span&gt;&lt;div&gt;&lt;span style=&quot;font-size: 14px;&quot;&gt;транспортной&amp;nbsp;&lt;br&gt;компании&lt;br&gt;&lt;/span&gt;&lt;/div&gt;" style="ellipse;whiteSpace=wrap;html=1;" vertex="1" parent="1">
          <mxGeometry x="83" y="3180" width="140" height="60" as="geometry" />
        </mxCell>
        <mxCell id="IZzUB9tZ3DCIGUgleCzr-36" value="" style="endArrow=none;html=1;rounded=0;exitX=1;exitY=0.5;exitDx=0;exitDy=0;entryX=0;entryY=1;entryDx=0;entryDy=0;" edge="1" parent="1" source="IZzUB9tZ3DCIGUgleCzr-34" target="-9mjrlD3U77bwaLZREmP-149">
          <mxGeometry width="50" height="50" relative="1" as="geometry">
            <mxPoint x="233" y="3055" as="sourcePoint" />
            <mxPoint x="354" y="2280" as="targetPoint" />
          </mxGeometry>
        </mxCell>
        <mxCell id="IZzUB9tZ3DCIGUgleCzr-37" value="" style="endArrow=none;html=1;rounded=0;exitX=1;exitY=0.5;exitDx=0;exitDy=0;entryX=-0.018;entryY=0.961;entryDx=0;entryDy=0;entryPerimeter=0;" edge="1" parent="1" source="IZzUB9tZ3DCIGUgleCzr-35" target="-9mjrlD3U77bwaLZREmP-149">
          <mxGeometry width="50" height="50" relative="1" as="geometry">
            <mxPoint x="233" y="3140" as="sourcePoint" />
            <mxPoint x="354" y="2280" as="targetPoint" />
          </mxGeometry>
        </mxCell>
        <mxCell id="IZzUB9tZ3DCIGUgleCzr-38" value="&lt;div&gt;&lt;div&gt;&lt;span style=&quot;font-size: 14px;&quot;&gt;Сумма поставки&lt;/span&gt;&lt;/div&gt;&lt;/div&gt;" style="ellipse;whiteSpace=wrap;html=1;direction=east;flipH=1;flipV=0;" vertex="1" parent="1">
          <mxGeometry x="813" y="3240" width="140" height="70" as="geometry" />
        </mxCell>
        <mxCell id="IZzUB9tZ3DCIGUgleCzr-39" value="" style="endArrow=none;html=1;rounded=0;exitX=0;exitY=0.5;exitDx=0;exitDy=0;entryX=0.5;entryY=1;entryDx=0;entryDy=0;" edge="1" parent="1" source="IZzUB9tZ3DCIGUgleCzr-38" target="-9mjrlD3U77bwaLZREmP-49">
          <mxGeometry width="50" height="50" relative="1" as="geometry">
            <mxPoint x="823" y="3205" as="sourcePoint" />
            <mxPoint x="690" y="3050" as="targetPoint" />
          </mxGeometry>
        </mxCell>
      </root>
    </mxGraphModel>
  </diagram>
</mxfile>
